<?xml version="1.0" standalone="no"?>
<!DOCTYPE svg PUBLIC "-//W3C//DTD SVG 1.1//EN" "http://www.w3.org/Graphics/SVG/1.1/DTD/svg11.dtd" >
<svg xmlns="http://www.w3.org/2000/svg">
<metadata></metadata>
<defs>
<font id="twofaced_displaybold" horiz-adv-x="1474" >
<font-face units-per-em="2048" ascent="1536" descent="-512" />
<missing-glyph horiz-adv-x="577" />
<glyph horiz-adv-x="0" />
<glyph unicode="&#xd;" horiz-adv-x="577" />
<glyph horiz-adv-x="0" />
<glyph horiz-adv-x="0" />
<glyph unicode=" "  horiz-adv-x="577" />
<glyph unicode="&#x09;" horiz-adv-x="577" />
<glyph unicode="&#xa0;" horiz-adv-x="577" />
<glyph unicode="!" horiz-adv-x="509" d="M86 133q0 70 47 120t121 50q70 0 120 -50t50 -120q0 -35 -13.5 -64.5t-37 -53t-54 -37t-65.5 -13.5q-74 0 -121 50.5t-47 117.5zM111 1536h280l-106 -1141h-62z" />
<glyph unicode="&#x22;" horiz-adv-x="749" d="M39 1516h272l-96 -607l-76 -2zM426 1516h272l-96 -607l-76 -2z" />
<glyph unicode="$" horiz-adv-x="1363" d="M143 469h291q0 -51 19.5 -95t53.5 -77t78 -51.5t91 -18.5q129 0 185.5 56.5t56.5 158.5q0 49 -16.5 84t-51.5 61.5t-88 50.5t-129 52q-90 35 -167 76t-133.5 95t-90 124t-35.5 160q0 94 31.5 172t91 134t147.5 88t199 32q115 0 202 -33t145 -89t89 -132t33 -164h-285 q-10 70 -54 113t-136 43q-80 0 -128 -41t-42 -115q0 -43 11 -72.5t37.5 -52t69.5 -42.5t109 -40q115 -41 205 -87t151.5 -105.5t94 -137t32.5 -182.5q0 -104 -38.5 -190t-108.5 -147.5t-169 -96.5t-218 -35q-115 0 -212 40t-169 108.5t-112 160t-40 195.5zM561 109h246v-285 h-246v285zM561 1436v284h246v-284h-246z" />
<glyph unicode="&#x26;" horiz-adv-x="1517" d="M86 481q0 145 66.5 258t177.5 181q-53 47 -86 106t-33 137q0 94 32.5 170t90 129.5t135.5 82t168 28.5h6h8q106 0 198.5 -43t147.5 -121l-233 -176q-18 27 -45 46t-70 19q-63 -2 -100 -47t-37 -102q0 -59 36 -103.5t124 -44.5h16v-274h-67q-53 0 -97.5 -19.5t-75 -53 t-48 -79t-17.5 -94.5q0 -47 17.5 -92t48 -79t74.5 -54t98 -20q53 0 97 20t74.5 54t48 79t17.5 92v520h535v-282h-236v-238q0 -47 18.5 -92t50 -79t74.5 -54t93 -20v-275q-117 0 -214.5 42t-172.5 114q-72 -72 -169.5 -114t-215.5 -42q-115 2 -212.5 42t-169 109.5 t-112.5 164t-41 204.5z" />
<glyph unicode="'" horiz-adv-x="352" d="M41 1536h272l-96 -606l-76 -2z" />
<glyph unicode="(" horiz-adv-x="729" d="M31 571q0 276 83 528.5t253 465.5h297q-143 -170 -226 -379q-127 -291 -127 -615t127 -620q27 -76 66 -143.5t80 -131.5h-293q-135 193 -197.5 422.5t-62.5 472.5z" />
<glyph unicode=")" horiz-adv-x="763" d="M51 1565h293q170 -213 254 -465t84 -529q0 -244 -63.5 -473t-194.5 -422h-297q47 63 85 131t69 144q59 147 90.5 301t31.5 319q0 160 -31.5 314.5t-90.5 300.5q-47 104 -104.5 198.5t-125.5 180.5z" />
<glyph unicode="," horiz-adv-x="573" d="M150 272h272v-272l-272 -287v559z" />
<glyph unicode="." horiz-adv-x="573" d="M115 133q0 70 47 120t121 50q70 0 120 -50t50 -120q0 -35 -13.5 -64.5t-37 -53t-54.5 -37t-65 -13.5q-74 0 -121 50.5t-47 117.5z" />
<glyph unicode="/" horiz-adv-x="1062" d="M12 -184l596 1720h262l-598 -1720h-260z" />
<glyph unicode="0" horiz-adv-x="1783" d="M70 764q0 168 66.5 313.5t179 254t261 171t314.5 62.5q168 0 317.5 -62.5t261 -171t177 -254t65.5 -313.5q0 -166 -63.5 -311.5t-174 -254t-261 -172t-322.5 -63.5q-176 0 -325.5 63.5t-260 172t-173 254t-62.5 311.5zM352 764q0 -111 42 -209t116 -172t172 -116t209 -42 t209 42t172 116t116 172t42 209t-42 209t-116 172t-172.5 116t-208.5 42q-111 0 -209 -42t-172 -116t-116 -172.5t-42 -208.5zM743 764q0 63 44 105t104 42q59 0 104 -42t45 -105q0 -59 -45 -100t-104 -41t-103.5 41t-44.5 100z" />
<glyph unicode="1" horiz-adv-x="663" d="M184 0v1323l283 283v-1606h-283z" />
<glyph unicode="2" horiz-adv-x="1120" d="M-35 0l776 930q20 27 32.5 53.5t17.5 48.5q6 25 6 47q0 111 -69 167.5t-185 56.5q-49 0 -93 -18.5t-76 -50.5t-50.5 -74t-18.5 -89h-276q0 102 36.5 192.5t104.5 157t162 105.5t211 39q111 0 207 -36t165.5 -100.5t109.5 -155.5t40 -202q0 -86 -25.5 -152.5t-78.5 -136.5 l-443 -528h541v-254h-1094z" />
<glyph unicode="3" horiz-adv-x="1226" d="M55 475h283q0 -51 18.5 -97t51 -80t76.5 -53.5t96 -19.5q51 0 96 19.5t78.5 53.5t53 80t19.5 97q0 47 -14 93t-44 82t-74 57.5t-101 21.5q-68 0 -108 -9t-85 -26l-43 41l236 533h-467v268h905l-303 -582q82 -12 150.5 -53t119 -104.5t78 -145.5t27.5 -176 q0 -113 -41 -207t-111.5 -161.5t-167 -105.5t-204.5 -38q-109 0 -205 40t-167 108.5t-112 162t-41 201.5z" />
<glyph unicode="4" horiz-adv-x="1460" d="M-49 276l1157 1330v-1061h197v-269h-197v-274h-281v274h-876zM498 545h329v379z" />
<glyph unicode="5" horiz-adv-x="1282" d="M119 473h282q0 -51 20.5 -96t54.5 -79t79 -53.5t96 -19.5t95.5 19.5t77 53.5t51 79t18.5 96t-18.5 95t-51 77t-77 52.5t-95.5 19.5q-70 0 -126 -31t-89 -84l-268 29l115 909h794v-268h-555l-43 -342q82 49 207 49q104 0 194.5 -37t156 -103.5t103.5 -159.5t38 -206 q0 -111 -42 -205t-115 -161.5t-168 -105.5t-202 -38q-109 0 -206 40t-169.5 108.5t-114.5 162t-42 199.5z" />
<glyph unicode="6" horiz-adv-x="1273" d="M76 494q0 80 20.5 151.5t79.5 167.5l459 723h334l-334 -524q23 6 44 10t48 4q70 0 148.5 -34t145 -101.5t111 -166.5t44.5 -230q0 -109 -45.5 -205t-120 -169t-174 -115t-209.5 -42q-111 0 -211.5 42t-175 115t-119.5 169t-45 205zM360 494q0 -55 20.5 -104.5t57.5 -85.5 t85.5 -57.5t103.5 -21.5q53 0 101 21.5t84 57.5t57.5 85t21.5 105q0 55 -21.5 104t-57.5 86t-84 58.5t-101 21.5q-55 0 -103.5 -21.5t-85.5 -58.5t-57.5 -86t-20.5 -104z" />
<glyph unicode="7" horiz-adv-x="1359" d="M143 1268v268h1108l-651 -1536h-301l528 1268h-684z" />
<glyph unicode="8" horiz-adv-x="1148" d="M57 453q0 123 57.5 220t155.5 156q-70 53 -109.5 131t-39.5 181q0 90 33.5 167.5t94 134t143.5 89.5t181 33q96 0 179.5 -33t143.5 -89.5t95 -134t35 -167.5q0 -102 -38.5 -180.5t-108.5 -131.5q96 -59 150 -156.5t54 -219.5q0 -100 -38.5 -189.5t-107.5 -155 t-162 -104.5t-202 -39t-203 39t-163.5 104.5t-109.5 154.5t-40 190zM340 461q0 -47 18.5 -90t50 -75t74.5 -50.5t90 -18.5t89.5 18.5t73 50.5t48 75t17.5 90t-17.5 88t-48 71.5t-72.5 48t-90 17.5q-47 0 -90 -17.5t-74.5 -48t-50 -71.5t-18.5 -88zM397 1133 q0 -74 51.5 -125.5t124.5 -51.5q70 0 120 51.5t50 125.5q0 70 -50 120t-120 50q-74 0 -125 -50.5t-51 -119.5z" />
<glyph unicode="9" horiz-adv-x="1173" d="M39 1042q0 109 45 205t120 169t174 115t210 42t211 -42t175 -115t120 -169t45 -205q0 -80 -20.5 -151.5t-80.5 -167.5l-458 -723h-334l334 524q-23 -6 -44.5 -10t-48.5 -4q-70 0 -148.5 34t-145 101.5t-110.5 166.5t-44 230zM324 1042q0 -55 21.5 -104t57 -86t84 -58.5 t101.5 -21.5q55 0 103 21.5t85 58.5t57.5 86t20.5 104t-20.5 104.5t-57.5 85.5t-85 57.5t-103 21.5q-53 0 -101.5 -21.5t-84 -57.5t-57 -85t-21.5 -105z" />
<glyph unicode=":" horiz-adv-x="577" d="M115 133q0 70 47 120t121 50q70 0 120 -50t50 -120q0 -35 -13.5 -64.5t-37 -53t-54.5 -37t-65 -13.5q-74 0 -121 50.5t-47 117.5zM115 965q0 70 47 120t121 50q70 0 120 -50t50 -120q0 -35 -13.5 -65t-37 -53.5t-54.5 -36.5t-65 -13q-74 0 -121 50t-47 118z" />
<glyph unicode=";" horiz-adv-x="577" d="M115 965q0 70 47 120t121 50q70 0 120 -50t50 -120q0 -35 -13.5 -65t-37 -53.5t-54.5 -36.5t-65 -13q-74 0 -121 50t-47 118zM150 272v-559l272 287v272h-272z" />
<glyph unicode="?" horiz-adv-x="1241" d="M131 1071q0 102 37 192.5t104.5 157t161.5 104.5t211 38q109 0 203 -35t162.5 -99.5t108.5 -153.5t40 -198v-6q0 -61 -17.5 -109.5t-46 -91.5t-66.5 -81.5t-81 -77.5q-35 -29 -64.5 -56.5t-51 -58.5t-34 -67.5t-12.5 -84.5v-22h-274v8q0 96 23.5 166t60.5 122t81 90 t86 71.5t74.5 66.5t47.5 76q4 16 5 29.5t1 19.5q0 111 -64.5 171.5t-181.5 60.5q-49 0 -93 -18.5t-77 -50.5t-51 -74t-18 -89h-275zM483 131q0 70 47.5 120t120.5 50q70 0 120 -50t50 -120q0 -35 -13 -64.5t-36.5 -53t-54.5 -37t-66 -13.5q-74 0 -121 50t-47 118z" />
<glyph unicode="A" horiz-adv-x="1513" d="M-25 0l775 1606l782 -1606h-330v6l-735 344l-168 -350h-324zM573 569l467 -225l-290 614z" />
<glyph unicode="B" horiz-adv-x="1267" d="M143 0v1536h494q84 0 158.5 -24.5t130 -73.5t87 -120t31.5 -163q0 -70 -29.5 -133.5t-82.5 -106.5q106 -63 169.5 -172.5t63.5 -242.5q0 -109 -39 -200t-106.5 -156.5t-160.5 -103.5t-202 -40h-514zM426 260h231q55 0 97.5 19.5t71 52.5t43 77t14.5 91q0 45 -17.5 86 t-48.5 71.5t-71.5 49t-88.5 18.5h-231v-465zM426 987h182q86 0 121 44t35 97q0 57 -37 98.5t-111 41.5h-190v-281z" />
<glyph unicode="C" horiz-adv-x="1560" d="M68 770q0 168 67.5 315.5t181 257t264 172t316.5 62.5t315.5 -60.5t262.5 -166.5l-193 -193q-76 74 -174 115t-211 41t-212 -42t-173 -116t-116 -173t-42 -212t42 -211t116 -172t173 -117t212 -43t211 44t174 114l201 -192q-113 -109 -262.5 -169.5t-323.5 -60.5 q-176 0 -327.5 63.5t-263 174t-175 257t-63.5 312.5z" />
<glyph unicode="D" horiz-adv-x="1517" d="M143 0v1536h504q154 0 294 -56.5t247.5 -157.5t172 -241.5t64.5 -310.5q0 -162 -57 -302t-158.5 -244.5t-244 -164t-310.5 -59.5h-512zM428 262h219q117 0 208 42t154.5 111.5t97.5 162t34 192.5q0 92 -36 183t-100.5 162t-155.5 115t-202 44h-219v-1012z" />
<glyph unicode="E" horiz-adv-x="1212" d="M143 0v1536h961v-262h-678v-537h643v-270h-643v-205h678v-262h-961z" />
<glyph unicode="F" horiz-adv-x="1208" d="M143 0v1536h957v-262h-674v-541h639v-260h-639v-473h-283z" />
<glyph unicode="G" horiz-adv-x="1787" d="M70 768q0 168 66.5 314.5t180 256t263 172t315.5 62.5q168 0 316.5 -60.5t261.5 -169.5l-193 -190q-74 74 -173 114t-212 40t-211 -42t-171 -115t-115 -171t-42 -211t42 -211t115 -171t171 -115t211 -42q74 0 143.5 19.5t131 56.5t111.5 87t85 112h-627v264h983 q0 -166 -64.5 -312.5t-176 -256t-262 -173t-324.5 -63.5q-176 0 -326.5 63.5t-261 173t-174 256t-63.5 312.5z" />
<glyph unicode="H" horiz-adv-x="1484" d="M143 0v1536h283v-803h633v803h282v-1536h-282v471h-633v-471h-283z" />
<glyph unicode="I" horiz-adv-x="559" d="M141 0v1536h283v-1536h-283z" />
<glyph unicode="J" horiz-adv-x="1193" d="M72 438h276q0 -43 16.5 -81t44 -66.5t64.5 -46t80 -17.5q47 0 87 17.5t67.5 46t43 66.5t15.5 81v1098h285v-1098q0 -98 -38 -184t-104.5 -150.5t-158 -101.5t-197.5 -37q-102 0 -190.5 37t-153 101.5t-101 150.5t-36.5 184z" />
<glyph unicode="K" horiz-adv-x="1220" d="M143 0v1536h283v-1536h-283zM432 606v6l459 924h323l-479 -915l451 -621h-330l-416 606h-8z" />
<glyph unicode="L" horiz-adv-x="1193" d="M143 0v1536h283v-1268h641v-268h-924z" />
<glyph unicode="M" horiz-adv-x="2099" d="M143 0v1606l904 -1196l907 1196v-1606h-285v805l-622 -883l-175 256l-444 633v-811h-285z" />
<glyph unicode="N" horiz-adv-x="1595" d="M143 0v1606l1031 -1016v946h278v-1606l-1026 1024v-954h-283z" />
<glyph unicode="O" horiz-adv-x="1787" d="M70 770q0 166 66.5 312.5t180 255t262 171t314.5 62.5t315.5 -62.5t263 -171t180 -255t66.5 -312.5t-63.5 -313.5t-175 -256t-262 -172t-324.5 -63.5q-176 0 -326.5 63.5t-261 172t-173 256t-62.5 313.5zM354 770q0 -115 42 -213t116 -172t172 -116t209 -42q113 0 212 42 t173 116t116 172t42 213q0 111 -42 209t-116 172t-173 116t-212 42q-111 0 -209 -42t-172 -116t-116 -172t-42 -209z" />
<glyph unicode="P" horiz-adv-x="1314" d="M143 0v1536h480q137 0 246.5 -47t186.5 -128t117.5 -188.5t40.5 -228.5t-43 -228.5t-121.5 -188.5t-187 -128t-239.5 -47h-197v-352h-283zM426 614h197q88 0 147 28t95 74t51.5 105.5t15.5 122.5q0 61 -19.5 118.5t-58.5 103.5t-97.5 74t-133.5 28h-197v-654z" />
<glyph unicode="Q" horiz-adv-x="1798" d="M66 774q0 164 66.5 309.5t179 254t261 172t312.5 63.5q168 0 316.5 -63.5t261 -172t178 -254t65.5 -309.5q0 -133 -45 -253t-119 -220l156 -156l-185 -184l-161 162q-96 -68 -214 -108t-253 -40q-174 0 -323.5 63.5t-260.5 172t-173 254t-62 309.5zM348 774 q0 -111 42 -209t115 -170.5t171 -114.5t209 -42q80 0 149.5 16t132.5 53l-225 234l184 176l226 -225q37 63 54 135.5t17 146.5q0 111 -42 209t-115.5 171t-172 115t-208.5 42q-111 0 -209 -42t-171 -115t-115 -171t-42 -209z" />
<glyph unicode="R" horiz-adv-x="1325" d="M143 0v1536h473q133 0 243 -47t186.5 -128t118.5 -188.5t42 -230.5q0 -178 -85 -309t-236 -197l315 -436h-344l-432 614h192q88 0 147.5 28t95.5 74t51.5 104.5t15.5 121.5q0 61 -19.5 119.5t-58.5 104.5t-97.5 74t-134.5 28h-192v-1268h-281z" />
<glyph unicode="S" horiz-adv-x="1363" d="M143 469h291q0 -51 19.5 -95t53.5 -77t78 -51.5t91 -18.5q129 0 185.5 56.5t56.5 158.5q0 49 -16.5 84t-51.5 61.5t-88 50.5t-129 52q-90 35 -167 76t-133.5 95t-90 124t-35.5 160q0 94 31.5 172t91 134t147.5 88t199 32q115 0 202 -33t145 -89t89 -132t33 -164h-285 q-10 70 -54 113t-136 43q-80 0 -128 -41q-43 -36 -43 -99q0 -8 1 -16q0 -43 11 -72.5t37.5 -52t69.5 -42.5t109 -40q115 -41 205 -87t151.5 -105.5t94 -137t32.5 -182.5q0 -104 -38.5 -190t-108.5 -147.5t-169 -96.5t-218 -35q-115 0 -212 40t-169 108.5t-112 160t-40 195.5 z" />
<glyph unicode="T" horiz-adv-x="1216" d="M143 1276v260h928v-260h-323v-1274h-281v1274h-324z" />
<glyph unicode="U" d="M143 537v999h281v-999q0 -63 22.5 -120t63.5 -100t99.5 -67.5t129.5 -24.5q80 0 138.5 24.5t96.5 67.5t57.5 99.5t19.5 120.5v999h280v-999q0 -119 -44 -223.5t-122 -181.5t-187.5 -122t-238.5 -45q-133 0 -243.5 45t-188.5 122t-121 181.5t-43 223.5z" />
<glyph unicode="V" horiz-adv-x="1470" d="M-33 1536h324l450 -967l465 967h310l-775 -1606z" />
<glyph unicode="W" horiz-adv-x="2461" d="M-25 1536h324l451 -956l485 1026l477 -1033l465 963h309l-774 -1604l-477 1000l-485 -1000z" />
<glyph unicode="X" horiz-adv-x="1384" d="M-51 0l571 825l-493 711h358l303 -465l303 465h361l-494 -711l572 -825h-361l-381 578l-381 -578h-358z" />
<glyph unicode="Y" horiz-adv-x="1402" d="M27 1536h335l338 -631l344 631h316l-520 -940v-596h-281v596z" />
<glyph unicode="Z" horiz-adv-x="1540" d="M61 0l834 1274h-799v262h1309l-848 -1280h891v-256h-1387z" />
<glyph unicode="[" horiz-adv-x="872" d="M143 -326v1862h586v-127h-301v-1608h301v-127h-586z" />
<glyph unicode="\" horiz-adv-x="964" d="M12 1516h262l596 -1721h-260z" />
<glyph unicode="]" horiz-adv-x="872" d="M143 -199h301v1608h-301v127h586v-1862h-586v127z" />
<glyph unicode="a" horiz-adv-x="1456" d="M-41 0l776 1604l776 -1604h-776v248h338l-338 713l-459 -961h-317z" />
<glyph unicode="b" horiz-adv-x="1368" d="M143 0v1536h1006l-238 -418q78 -27 142.5 -79t110.5 -121.5t72 -153.5t26 -172q0 -125 -42 -232.5t-119 -187.5t-185.5 -126t-241.5 -46h-531zM424 260h250q76 0 133 28.5t96 75t58.5 105.5t19.5 123q0 102 -43 187t-154 122zM424 774l285 494h-285v-494z" />
<glyph unicode="c" horiz-adv-x="1683" d="M70 766q0 168 67.5 316.5t181 257t265 172t317.5 63.5q162 0 310.5 -60.5t263.5 -168.5l-195 -193q-76 76 -173 117t-206 41q-82 0 -151.5 -19.5t-128.5 -52.5l954 -960l-94 -86q-113 -109 -259.5 -169.5t-320.5 -60.5q-178 0 -329.5 63.5t-263 173t-175 256t-63.5 310.5 zM356 766q0 -111 43 -209t117 -171t173 -116t212 -43q131 0 250 66l-731 731q-33 -53 -48.5 -120.5t-15.5 -137.5z" />
<glyph unicode="d" horiz-adv-x="1705" d="M41 1536h651q154 0 295 -55.5t248.5 -156.5t172.5 -241.5t65 -310.5q0 -162 -57.5 -303t-160 -245.5t-244 -164t-311.5 -59.5h-8h-502v772h283v-510h219q66 0 119 13.5t100 35.5zM586 1274l547 -750q27 59 41 118.5t14 129.5q0 92 -36 182t-100.5 161t-156.5 115t-203 44 h-106z" />
<glyph unicode="e" horiz-adv-x="1245" d="M86 1536h997v-262h-458l508 -715h-707v-297h680v-262h-963v827h467z" />
<glyph unicode="f" horiz-adv-x="1255" d="M86 1536h997v-262h-458l508 -713h-707v-561h-283v827h467z" />
<glyph unicode="g" horiz-adv-x="1775" d="M72 764q0 166 65.5 312.5t178 255t262 171t315.5 62.5v-265q-111 0 -209 -41.5t-171 -114.5t-115 -171.5t-42 -208.5q0 -111 42 -209t115 -172t171 -116t209 -42t209 42t171 116t115 172t42 209q0 63 -14.5 121.5t-41.5 111.5l-481 -481v371l510 514l63 -72 q113 -106 180.5 -252.5t67.5 -312.5q0 -164 -63.5 -310.5t-174 -255t-261 -172t-322.5 -63.5q-176 0 -325.5 63.5t-260 172t-173 255t-62.5 310.5z" />
<glyph unicode="h" horiz-adv-x="1503" d="M143 0v1536h283v-803h633v803h282v-1536h-282v471h-633v-471h-283z" />
<glyph unicode="i" horiz-adv-x="559" d="M141 0v1536h283v-1536h-283z" />
<glyph unicode="j" horiz-adv-x="1159" d="M-135 1536h1151v-1096q0 -98 -38 -184t-103.5 -150.5t-154.5 -101.5t-192 -37q-104 0 -193 37t-154.5 101.5t-102.5 150.5t-37 184h274q0 -43 16.5 -80.5t45.5 -66.5t67.5 -46.5t83.5 -17.5q80 0 137.5 51.5t67.5 125.5zM422 1268l311 -396v396h-311z" />
<glyph unicode="k" horiz-adv-x="1390" d="M143 -70v404v1202h281v-809l569 809h361l-563 -748l563 -788h-340l-398 557z" />
<glyph unicode="l" horiz-adv-x="1202" d="M143 0v1536h283v-1268h641v-268h-924z" />
<glyph unicode="m" horiz-adv-x="1875" d="M-72 0l770 1604l238 -504l240 504l770 -1604h-322l-448 952l-84 -176l376 -776h-1062l376 776l-84 182l-460 -958h-310zM831 231h211l-106 224z" />
<glyph unicode="n" horiz-adv-x="1583" d="M143 -43v1649l1014 -1000v930h279v-1585l-648 645zM422 606l180 172l-180 178v-350z" />
<glyph unicode="o" horiz-adv-x="1830" d="M90 770q0 166 66.5 312.5t180.5 255t263 171t315 62.5q168 0 318.5 -62.5t264.5 -171t181.5 -255t67.5 -312.5q0 -174 -72.5 -319.5t-191.5 -257.5q-113 -102 -254.5 -165t-313.5 -63q-176 0 -326.5 63.5t-261 173t-174 256t-63.5 312.5zM377 770q0 -113 43 -212 t116.5 -173t171 -116t207.5 -42q80 0 153 20.5t132 53.5l-747 752q-37 -66 -56.5 -135.5t-19.5 -147.5zM637 1237l745 -754q39 66 59.5 138.5t20.5 148.5q0 111 -43 209t-117.5 172t-174 116t-212.5 42q-76 0 -144.5 -20.5t-133.5 -51.5z" />
<glyph unicode="p" horiz-adv-x="1343" d="M18 1536h664q133 -4 240.5 -51t183.5 -127t117 -187.5t41 -228.5q0 -123 -44 -231.5t-124 -188.5t-190.5 -127t-243.5 -47h-234v-348h-283v614h430zM483 1266l385 -594q59 47 87 118.5t28 151.5q0 63 -21.5 121.5t-61.5 103.5t-98.5 72t-133.5 27h-185z" />
<glyph unicode="q" horiz-adv-x="1792" d="M66 766q0 166 66.5 313.5t180 256t262 172t312.5 63.5q170 0 321.5 -63.5t266 -172t182 -256t67.5 -313.5q0 -131 -45 -253t-123 -216l156 -158l-182 -188l-172 170q-186 -158 -471 -158q-172 0 -322.5 63.5t-261 172t-174 255t-63.5 312.5zM354 766q0 -113 43 -211 t117 -172t170.5 -116t202.5 -42q84 0 156.5 18.5t132.5 53.5l-744 752q-78 -127 -78 -283zM614 1237l744 -758q41 66 59.5 140.5t18.5 146.5q0 113 -43 212t-118 173t-175.5 116t-212.5 42q-72 0 -139.5 -21.5t-133.5 -50.5z" />
<glyph unicode="r" horiz-adv-x="1306" d="M-10 1536h663q131 -2 238.5 -49t183.5 -128t117 -187.5t41 -229.5q0 -154 -65.5 -280.5t-188.5 -206.5l285 -455h-330l-223 354q-16 -4 -36 -6t-42 -2h-232v-346h-282v616h428zM455 1276l383 -602q63 47 87.5 117.5t24.5 150.5q0 63 -19.5 123.5t-59.5 107t-98 75 t-134 28.5h-184z" />
<glyph unicode="s" horiz-adv-x="1167" d="M-90 0l510 748q-68 35 -124 73.5t-97 84.5t-67 104.5t-28 134.5q0 94 31 171t92.5 132t153.5 85t213 30h29v-269h-37q-35 0 -70 -8t-62 -26q-26 -20 -42 -48q-13 -23 -14 -52q0 -7 1 -15q0 -43 20.5 -72t53.5 -48t74 -35l82 -32q113 -45 204 -91t154.5 -104t97 -135 t33.5 -184q0 -106 -34.5 -189t-97 -139.5t-149.5 -86t-194 -29.5h-733zM399 266h209q109 0 163 39t54 139q0 82 -40 127t-128 84z" />
<glyph unicode="t" horiz-adv-x="868" d="M92 1272v264h631v-1536h-283v1272h-348z" />
<glyph unicode="u" d="M143 539v997h596v-254h-313v-743q0 -66 21.5 -122.5t62.5 -99.5t99.5 -67.5t129.5 -24.5q80 0 138.5 24.5t97.5 67.5t57.5 99.5t18.5 122.5v997h282v-997q0 -121 -44 -225.5t-123 -182.5t-188.5 -123t-238.5 -45q-133 0 -242.5 45t-188.5 123t-122 182.5t-43 225.5z" />
<glyph unicode="v" horiz-adv-x="1445" d="M-51 1536h774v-238h-344l344 -725l465 963h309l-774 -1604z" />
<glyph unicode="w" horiz-adv-x="1951" d="M-35 1536h316l458 -963l84 175l-381 788h1071l-380 -788l84 -175l464 963h310l-774 -1604l-240 500l-238 -493zM872 1298l105 -219l106 219h-211z" />
<glyph unicode="x" horiz-adv-x="1310" d="M-96 0l565 825l-496 711h361l303 -465l309 465h361l-494 -711l565 -825h-1474zM432 266h416l-211 314z" />
<glyph unicode="y" horiz-adv-x="1249" d="M-43 1536h315l346 -635l338 635h324l-829 -1536h-310l330 621z" />
<glyph unicode="z" horiz-adv-x="1527" d="M55 0l832 1268h-797v268h1303l-478 -733l521 -803h-1381zM555 254h387l-197 295z" />
<glyph unicode="|" horiz-adv-x="1226" d="M479 -512v2048h246v-2048h-246z" />
<glyph unicode="&#xa1;" horiz-adv-x="509" d="M86 1403q0 -70 47 -120t121 -50q70 0 120 50t50 120q0 35 -13.5 64.5t-37 53t-54 37t-65.5 13.5q-74 0 -121 -50.5t-47 -117.5zM111 0h280l-106 1141h-62z" />
<glyph unicode="&#xa2;" horiz-adv-x="1683" d="M70 766q0 168 67.5 316.5t181 257t265 172t317.5 63.5q162 0 310.5 -60.5t263.5 -168.5l-195 -193q-76 76 -173 117t-206 41q-82 0 -151.5 -19.5t-128.5 -52.5l954 -960l-94 -86q-113 -109 -259.5 -169.5t-320.5 -60.5q-178 0 -329.5 63.5t-263 173t-175 256t-63.5 310.5 zM356 766q0 -111 43 -209t117 -171t173 -116t212 -43q131 0 250 66l-731 731q-33 -53 -48.5 -120.5t-15.5 -137.5zM774 63h246v-239h-246v239zM774 1479v239h246v-239h-246z" />
<glyph unicode="&#xa3;" horiz-adv-x="1335" d="M74 459v198h180v437q0 100 38 187t104.5 151.5t157.5 102.5t198 38q104 0 193 -37t154.5 -101.5t102.5 -150.5t37 -182v-8h-278v8q0 43 -16.5 80t-44.5 64.5t-66.5 44t-81.5 16.5q-96 0 -154.5 -59.5t-58.5 -145.5v-8v-179h542v-200h-542v-58h542v-198h-542v-172h700 v-287h-985v459h-180z" />
<glyph unicode="&#xa9;" horiz-adv-x="1705" d="M326 760q0 90 33.5 170t93 139t139.5 93t170 34t169 -34t138 -93t94 -139t35 -170t-35 -169t-94 -138.5t-138 -94t-169 -34.5t-170 34.5t-139.5 94t-93 138.5t-33.5 169zM416 760q0 -72 27.5 -134.5t74.5 -109.5t109.5 -74.5t134.5 -27.5t134 27.5t109.5 74.5t75 109.5 t27.5 134.5t-27.5 134t-75 109.5t-109.5 75t-134 27.5t-134.5 -27.5t-109.5 -75t-74.5 -110t-27.5 -133.5zM492 760q0 55 21.5 103t58 83t86 55.5t104.5 20.5q53 0 102 -19.5t84 -54.5l-61 -61q-53 49 -125 49q-51 0 -90 -25l309 -309l-29 -29q-37 -35 -86 -55t-104 -20 q-57 0 -106.5 20.5t-86.5 56t-57 84t-20 101.5zM586 760q0 -37 13 -69t38 -55.5t56.5 -37.5t68.5 -14q41 0 82 20l-238 240q-20 -41 -20 -84z" />
<glyph unicode="&#xae;" horiz-adv-x="1705" d="M406 772q0 90 34.5 170t94 139.5t138.5 93t169 33.5t170 -33.5t139 -93t93 -139.5t34 -170t-34 -169t-93 -138t-139 -94t-170 -35t-169 35t-138.5 94t-94 138t-34.5 169zM496 772q0 -72 27.5 -134.5t74.5 -109.5t109.5 -74.5t134.5 -27.5t134 27.5t109.5 74.5t75 109.5 t27.5 134.5t-27.5 134.5t-75 109.5t-110 74.5t-133.5 27.5q-72 0 -134.5 -27.5t-109.5 -74.5t-74.5 -109.5t-27.5 -134.5zM668 938v86h174q92 -2 145 -58.5t53 -136.5q0 -49 -23.5 -91t-64.5 -68l101 -150h-115l-76 117h-26h-62v-115h-104v201h137zM774 938l131 -197 q20 16 29.5 40t9.5 48q0 41 -26.5 75t-79.5 34h-64z" />
<glyph unicode="&#xbf;" horiz-adv-x="1241" d="M117 455q0 -102 37 -192.5t104.5 -157t161.5 -104.5t211 -38q109 0 203 35t162.5 99.5t108.5 153.5t40 198v6q0 61 -17.5 109.5t-46 91.5t-66.5 81.5t-81 77.5q-35 29 -64.5 56.5t-51 58.5t-34 67.5t-12.5 84.5v22h-274v-8q0 -96 23.5 -166t60.5 -122t81 -90t86 -71.5 t74.5 -66.5t47.5 -76q4 -16 5 -29.5t1 -19.5q0 -111 -64.5 -171.5t-181.5 -60.5q-49 0 -93 18.5t-77 50.5t-51 74t-18 89h-275zM469 1395q0 -70 47.5 -120t120.5 -50q70 0 120 50t50 120q0 35 -13 64.5t-36.5 53t-54.5 37t-66 13.5q-74 0 -121 -50t-47 -118z" />
<glyph unicode="&#xc0;" horiz-adv-x="1579" d="M-25 0l775 1606l782 -1606h-330v6l-735 344l-168 -350h-324zM469 1995h240l227 -316h-193zM573 569l467 -225l-290 614z" />
<glyph unicode="&#xc1;" horiz-adv-x="1579" d="M-25 0l775 1606l782 -1606h-330v6l-735 344l-168 -350h-324zM573 569l467 -225l-290 614zM655 1681l228 316h239l-274 -316h-193z" />
<glyph unicode="&#xc2;" horiz-adv-x="1507" d="M-25 0l775 1606l782 -1606h-330v6l-735 344l-168 -350h-324zM324 1679l426 316l432 -316h-267l-165 117l-166 -117h-260zM573 569l467 -225l-290 614z" />
<glyph unicode="&#xc3;" horiz-adv-x="1513" d="M-25 0h324l168 350l735 -344v-6h330l-782 1606zM348 1870q47 41 108.5 65.5t131.5 24.5q39 0 73.5 -11.5t69.5 -23.5t74 -23.5t86 -11.5q43 0 81 18.5t75 45.5l112 -176q-53 -43 -108 -71t-125 -28q-39 0 -75 10.5t-71 21.5t-73.5 21.5t-83.5 10.5q-47 0 -87 -12.5 t-81 -44.5zM573 569l177 389l290 -614z" />
<glyph unicode="&#xc4;" horiz-adv-x="1513" d="M-25 0h324l168 350l735 -344v-6h330l-782 1606zM369 1847q0 70 47 120t121 50q70 0 120 -50t50 -120q0 -35 -13.5 -64.5t-37 -53t-54.5 -37t-65 -13.5q-74 0 -121 50.5t-47 117.5zM573 569l177 389l290 -614zM797 1847q0 70 50 120t120 50q33 0 63.5 -13t54 -36.5 t37 -54.5t13.5 -66t-13.5 -64.5t-37 -53t-54.5 -37t-63 -13.5q-35 0 -66 13.5t-54.5 37t-36.5 53t-13 64.5z" />
<glyph unicode="&#xc5;" horiz-adv-x="1513" d="M-25 0l775 1606l782 -1606h-330v6l-735 344l-168 -350h-324zM518 1921q0 47 18.5 89t50 74t74 50t89.5 18q51 0 95 -18t76.5 -50t51 -74t18.5 -89q0 -51 -18.5 -95t-51 -77t-76.5 -51.5t-95 -18.5q-47 0 -89.5 18.5t-74 51.5t-50 77t-18.5 95zM573 569l467 -225l-290 614 zM645 1921q0 -47 32 -81t73 -34q49 0 81.5 34t32.5 81q0 41 -32.5 72.5t-81.5 31.5q-41 0 -73 -31.5t-32 -72.5z" />
<glyph unicode="&#xc6;" horiz-adv-x="1984" d="M-57 0l1200 1536h731v-262h-676v-449h641v-270h-641v-293h676v-262h-956h-5v2l-401 272l-217 -274h-352zM664 465l249 -176v502z" />
<glyph unicode="&#xc7;" horiz-adv-x="1560" d="M70 766q0 172 67.5 320.5t181 258t263 172t315.5 62.5t315.5 -61.5t262.5 -165.5l-191 -193q-76 72 -174 111t-213 39q-113 0 -211 -42t-172 -115t-117 -172t-43 -214q0 -113 43 -211t117 -172t172 -116t211 -42q115 0 213 46t174 112l199 -195q-102 -96 -233.5 -152 t-286.5 -67l-45 -78q12 4 23.5 5.5t21.5 1.5q39 0 71.5 -16.5t56 -44t37 -62.5t13.5 -74q0 -100 -66.5 -155.5t-171.5 -55.5q-74 0 -129 35t-78 98l142 45q27 -45 65 -45q39 0 58.5 23.5t19.5 54.5q0 35 -18.5 54.5t-51.5 19.5q-31 0 -55 -29l-137 74l72 149 q-156 18 -288 88t-228.5 176.5t-150.5 243.5t-54 289z" />
<glyph unicode="&#xc8;" horiz-adv-x="1212" d="M143 0v1536h961v-262h-678v-537h643v-270h-643v-205h678v-262h-961zM360 1995h240l227 -316h-192z" />
<glyph unicode="&#xc9;" horiz-adv-x="1212" d="M143 0v1536h961v-262h-678v-537h643v-270h-643v-205h678v-262h-961zM457 1681l227 316h240l-275 -316h-192z" />
<glyph unicode="&#xca;" horiz-adv-x="1212" d="M143 0v1536h961v-262h-678v-537h643v-270h-643v-205h678v-262h-961zM215 1679l426 316l432 -316h-266l-166 117l-166 -117h-260z" />
<glyph unicode="&#xcb;" horiz-adv-x="1212" d="M143 0h961v262h-678v205h643v270h-643v537h678v262h-961v-1536zM279 1847q0 70 47 120t120 50q70 0 120 -50t50 -120q0 -35 -13 -64.5t-36.5 -53t-54.5 -37t-66 -13.5q-74 0 -120.5 50.5t-46.5 117.5zM707 1847q0 70 50 120t120 50q33 0 63.5 -13t54 -36.5t36.5 -54.5 t13 -66t-13 -64.5t-36.5 -53t-54.5 -37t-63 -13.5q-35 0 -66 13.5t-54.5 37t-36.5 53t-13 64.5z" />
<glyph unicode="&#xcc;" horiz-adv-x="559" d="M-29 1995h240l227 -316h-192zM141 0v1536h283v-1536h-283z" />
<glyph unicode="&#xcd;" horiz-adv-x="559" d="M139 1681l228 316h239l-274 -316h-193zM141 0v1536h283v-1536h-283z" />
<glyph unicode="&#xce;" horiz-adv-x="559" d="M-147 1679l426 316l432 -316h-267l-165 117l-166 -117h-260zM141 0v1536h283v-1536h-283z" />
<glyph unicode="&#xcf;" horiz-adv-x="559" d="M-102 1847q0 70 47 120t121 50q70 0 120 -50t50 -120q0 -35 -13.5 -64.5t-37 -53t-54.5 -37t-65 -13.5q-74 0 -121 50.5t-47 117.5zM141 0v1536h283v-1536h-283zM326 1847q0 70 50 120t120 50q33 0 63.5 -13t54 -36.5t37 -54.5t13.5 -66t-13.5 -64.5t-37 -53t-54.5 -37 t-63 -13.5q-35 0 -66 13.5t-54.5 37t-36.5 53t-13 64.5z" />
<glyph unicode="&#xd0;" horiz-adv-x="1517" d="M-98 631v200h241v709h504q154 0 294 -56.5t247.5 -157.5t172 -241.5t64.5 -310.5q0 -162 -57 -302t-158.5 -244.5t-244 -164t-310.5 -59.5h-512v627h-241zM428 266h219q117 0 208 42t154.5 111.5t97.5 162t34 192.5q0 92 -36 183.5t-100.5 162t-155.5 114.5t-202 44h-219 v-447h262v-200h-262v-365z" />
<glyph unicode="&#xd1;" horiz-adv-x="1595" d="M143 0h283v954l1026 -1024v1606h-278v-946l-1031 1016v-1606zM348 1870q47 41 108.5 65.5t131.5 24.5q39 0 73.5 -11.5t69.5 -23.5t74 -23.5t86 -11.5q43 0 81 18.5t75 45.5l112 -176q-53 -43 -108 -71t-125 -28q-39 0 -75 10.5t-71 21.5t-73.5 21.5t-83.5 10.5 q-47 0 -87 -12.5t-81 -44.5z" />
<glyph unicode="&#xd2;" horiz-adv-x="1787" d="M70 770q0 166 66.5 312.5t180 255t262 171t314.5 62.5t315.5 -62.5t263 -171t180 -255t66.5 -312.5t-63.5 -313.5t-175 -256t-262 -172t-324.5 -63.5q-176 0 -326.5 63.5t-261 172t-173 256t-62.5 313.5zM354 770q0 -115 42 -213t116 -172t172 -116t209 -42q113 0 212 42 t173 116t116 172t42 213q0 111 -42 209t-116 172t-173 116t-212 42q-111 0 -209 -42t-172 -116t-116 -172t-42 -209zM469 1995h240l227 -316h-193z" />
<glyph unicode="&#xd3;" horiz-adv-x="1787" d="M70 770q0 166 66.5 312.5t180 255t262 171t314.5 62.5t315.5 -62.5t263 -171t180 -255t66.5 -312.5t-63.5 -313.5t-175 -256t-262 -172t-324.5 -63.5q-176 0 -326.5 63.5t-261 172t-173 256t-62.5 313.5zM354 770q0 -115 42 -213t116 -172t172 -116t209 -42q113 0 212 42 t173 116t116 172t42 213q0 111 -42 209t-116 172t-173 116t-212 42q-111 0 -209 -42t-172 -116t-116 -172t-42 -209zM655 1681l228 316h239l-274 -316h-193z" />
<glyph unicode="&#xd4;" horiz-adv-x="1787" d="M70 770q0 166 66.5 312.5t180 255t262 171t314.5 62.5t315.5 -62.5t263 -171t180 -255t66.5 -312.5t-63.5 -313.5t-175 -256t-262 -172t-324.5 -63.5q-176 0 -326.5 63.5t-261 172t-173 256t-62.5 313.5zM354 770q0 -115 42 -213t116 -172t172 -116t209 -42q113 0 212 42 t173 116t116 172t42 213q0 111 -42 209t-116 172t-173 116t-212 42q-111 0 -209 -42t-172 -116t-116 -172t-42 -209zM461 1679l426 316l432 -316h-266l-166 117l-166 -117h-260z" />
<glyph unicode="&#xd5;" horiz-adv-x="1787" d="M70 770q0 -166 62.5 -313.5t173 -256t261 -172t326.5 -63.5q174 0 324.5 63.5t262 172t175 256t63.5 313.5t-66.5 312.5t-180 255t-263 171t-315.5 62.5t-314.5 -62.5t-262 -171t-180 -255t-66.5 -312.5zM354 770q0 111 42 209t116 172t172 116t209 42q113 0 212 -42 t173 -116t116 -172t42 -209q0 -115 -42 -213t-116 -172t-173 -116t-212 -42q-111 0 -209 42t-172 116t-116 172t-42 213zM451 1870q47 41 108.5 65.5t130.5 24.5q39 0 74 -11.5t69.5 -23.5t73.5 -23.5t86 -11.5q43 0 81 18.5t75 45.5l113 -176q-53 -43 -108.5 -71 t-125.5 -28q-39 0 -74.5 10.5t-70.5 21.5t-74 21.5t-84 10.5q-47 0 -87 -12.5t-81 -44.5z" />
<glyph unicode="&#xd6;" horiz-adv-x="1787" d="M70 770q0 -166 62.5 -313.5t173 -256t261 -172t326.5 -63.5q174 0 324.5 63.5t262 172t175 256t63.5 313.5t-66.5 312.5t-180 255t-263 171t-315.5 62.5t-314.5 -62.5t-262 -171t-180 -255t-66.5 -312.5zM354 770q0 111 42 209t116 172t172 116t209 42q113 0 212 -42 t173 -116t116 -172t42 -209q0 -115 -42 -213t-116 -172t-173 -116t-212 -42q-111 0 -209 42t-172 116t-116 172t-42 213zM508 1847q0 70 47 120t121 50q70 0 120 -50t50 -120q0 -35 -13.5 -64.5t-37 -53t-54 -37t-65.5 -13.5q-74 0 -121 50.5t-47 117.5zM936 1847 q0 70 50 120t120 50q33 0 63.5 -13t54 -36.5t37 -54.5t13.5 -66t-13.5 -64.5t-37 -53t-54 -37t-63.5 -13.5q-35 0 -65.5 13.5t-54 37t-37 53t-13.5 64.5z" />
<glyph unicode="&#xd8;" horiz-adv-x="1787" d="M53 98l185 187q-80 100 -122 224t-42 263q0 166 65.5 311.5t178 254t262 171t317.5 62.5q129 0 251 -40t222 -116l193 199l176 -176l-193 -193q80 -100 126 -219t46 -254q0 -168 -63.5 -314.5t-175 -256t-261 -173t-321.5 -63.5q-141 0 -261 40t-220 108l-187 -191z M358 772q0 -164 78 -285l744 738q-66 39 -137.5 61.5t-145.5 22.5q-113 0 -211 -43t-171 -117t-115 -171t-42 -206zM612 311q59 -37 132 -60.5t153 -23.5q111 0 209 43t171 118t115 174t42 210q0 74 -20.5 145.5t-63.5 131.5z" />
<glyph unicode="&#xd9;" d="M143 537v999h281v-999q0 -63 22.5 -120t63.5 -100t99.5 -67.5t129.5 -24.5q80 0 138.5 24.5t96.5 67.5t57.5 99.5t19.5 120.5v999h280v-999q0 -119 -44 -223.5t-122 -181.5t-187.5 -122t-238.5 -45q-133 0 -243.5 45t-188.5 122t-121 181.5t-43 223.5zM469 1995h240 l227 -316h-193z" />
<glyph unicode="&#xda;" d="M143 537v999h281v-999q0 -63 22.5 -120t63.5 -100t99.5 -67.5t129.5 -24.5q80 0 138.5 24.5t96.5 67.5t57.5 99.5t19.5 120.5v999h280v-999q0 -119 -44 -223.5t-122 -181.5t-187.5 -122t-238.5 -45q-133 0 -243.5 45t-188.5 122t-121 181.5t-43 223.5zM655 1681l228 316 h239l-274 -316h-193z" />
<glyph unicode="&#xdb;" d="M143 537v999h281v-999q0 -63 22.5 -120t63.5 -100t99.5 -67.5t129.5 -24.5q80 0 138.5 24.5t96.5 67.5t57.5 99.5t19.5 120.5v999h280v-999q0 -119 -44 -223.5t-122 -181.5t-187.5 -122t-238.5 -45q-133 0 -243.5 45t-188.5 122t-121 181.5t-43 223.5zM313 1679l426 316 l432 -316h-266l-166 117l-166 -117h-260z" />
<glyph unicode="&#xdc;" d="M143 537q0 -119 43 -223.5t121 -181.5t188.5 -122t243.5 -45q129 0 238.5 45t187.5 122t122 181.5t44 223.5v999h-280v-999q0 -63 -19.5 -120t-57.5 -100t-96.5 -67.5t-138.5 -24.5q-72 0 -130 24.5t-99 67.5t-63.5 99.5t-22.5 120.5v999h-281v-999zM356 1847 q0 70 47.5 120t120.5 50q70 0 120 -50t50 -120q0 -35 -13 -64.5t-36.5 -53t-54.5 -37t-66 -13.5q-74 0 -121 50.5t-47 117.5zM784 1847q0 70 50.5 120t119.5 50q33 0 64 -13t54.5 -36.5t36.5 -54.5t13 -66t-13 -64.5t-36.5 -53t-54.5 -37t-64 -13.5q-35 0 -65.5 13.5t-54 37 t-37 53t-13.5 64.5z" />
<glyph unicode="&#xdd;" horiz-adv-x="1402" d="M27 1536h335l338 -631l344 631h316l-520 -940v-596h-281v596zM655 1681l228 316h239l-274 -316h-193z" />
<glyph unicode="&#xde;" horiz-adv-x="1705" d="M143 0v1536h283v-477q57 96 150.5 149.5t216.5 53.5q100 0 189 -39t154.5 -106.5t104.5 -160t39 -200.5q0 -109 -39 -203t-104.5 -164t-154.5 -109.5t-189 -39.5q-123 0 -216.5 54t-150.5 152v-446h-283zM559 756q0 -49 17.5 -91t48 -74t71.5 -50.5t88 -18.5 q49 0 91.5 18.5t74 50.5t50 74t18.5 91q0 45 -18.5 86t-50 71.5t-73.5 49t-92 18.5q-47 0 -88 -18.5t-71.5 -49t-48 -71.5t-17.5 -86z" />
<glyph unicode="&#xdf;" horiz-adv-x="1120" d="M92 0l8 1169q0 94 32 168t87 125t130 79t161 32h8q88 -4 165 -32t133 -79t88 -124.5t32 -168.5q0 -72 -31 -130t-84 -101q109 -66 173.5 -178.5t64.5 -247.5q0 -111 -40 -204t-109.5 -160.5t-165 -106.5t-205.5 -41h-64v266h64q49 0 91 20.5t73.5 54.5t49 78t17.5 93 q0 45 -17.5 87t-49 75t-73.5 51t-91 18h-64v267h14q86 0 122 45t36 100q0 59 -31.5 99t-97.5 44q-66 -4 -98.5 -44t-32.5 -99h-6v-1155h-289z" />
<glyph unicode="&#xe0;" horiz-adv-x="1456" d="M-41 0l776 1604l776 -1604h-776v248h338l-338 713l-459 -961h-317zM391 1995h240l227 -316h-192z" />
<glyph unicode="&#xe1;" horiz-adv-x="1456" d="M-41 0l776 1604l776 -1604h-776v248h338l-338 713l-459 -961h-317zM655 1681l228 316h239l-274 -316h-193z" />
<glyph unicode="&#xe2;" horiz-adv-x="1456" d="M-41 0l776 1604l776 -1604h-776v248h338l-338 713l-459 -961h-317zM311 1679l426 316l432 -316h-266l-166 117l-166 -117h-260z" />
<glyph unicode="&#xe3;" horiz-adv-x="1456" d="M-41 0h317l459 961l338 -713h-338v-248h776l-776 1604zM307 1870q47 41 108.5 65.5t131.5 24.5q39 0 73.5 -11.5t69.5 -23.5t74 -23.5t86 -11.5q43 0 81 18.5t75 45.5l112 -176q-53 -43 -108 -71t-125 -28q-39 0 -75 10.5t-70.5 21.5t-73.5 21.5t-84 10.5 q-47 0 -87 -12.5t-81 -44.5z" />
<glyph unicode="&#xe4;" horiz-adv-x="1456" d="M-41 0h317l459 961l338 -713h-338v-248h776l-776 1604zM346 1847q0 70 47 120t121 50q70 0 120 -50t50 -120q0 -35 -13.5 -64.5t-37 -53t-54 -37t-65.5 -13.5q-74 0 -121 50.5t-47 117.5zM774 1847q0 70 50 120t120 50q33 0 63.5 -13t54 -36.5t37 -54.5t13.5 -66 t-13.5 -64.5t-37 -53t-54 -37t-63.5 -13.5q-35 0 -65.5 13.5t-54 37t-37 53t-13.5 64.5z" />
<glyph unicode="&#xe5;" horiz-adv-x="1456" d="M-41 0l776 1604l776 -1604h-776v248h338l-338 713l-459 -961h-317zM502 1921q0 47 18.5 89t50 74t73.5 50t89 18q51 0 95 -18t77 -50t51.5 -74t18.5 -89q0 -51 -18.5 -95t-51.5 -77t-77 -51.5t-95 -18.5q-47 0 -89 18.5t-73.5 51.5t-50 77t-18.5 95zM629 1921 q0 -47 31.5 -81t72.5 -34q49 0 82 34t33 81q0 41 -33 72.5t-82 31.5q-41 0 -72.5 -31.5t-31.5 -72.5z" />
<glyph unicode="&#xe7;" horiz-adv-x="1644" d="M74 768q0 168 67.5 314.5t181 256t263 172t315.5 62.5q160 0 309.5 -60.5t259.5 -166.5l-192 -195q-76 78 -173 119t-204 41q-80 0 -148.5 -19.5t-127.5 -52.5l946 -956l-92 -86q-96 -98 -229.5 -157.5t-284.5 -70.5l-43 -78q10 0 21 3.5t22 3.5q39 0 72.5 -16.5t56 -43 t36 -61.5t13.5 -72q0 -51 -18.5 -92t-50.5 -69.5t-75 -44t-90 -15.5q-76 0 -131 35t-84 100l150 51q20 -45 65 -45q78 0 78 80q0 35 -19.5 54.5t-54.5 19.5q-33 0 -55 -37l-135 78l72 155q-156 16 -288 85t-228.5 175.5t-150.5 242.5t-54 290zM358 768q0 -109 43 -206 t117 -171t172 -117t211 -43q129 0 248 66l-727 729q-63 -115 -64 -258z" />
<glyph unicode="&#xe8;" horiz-adv-x="1245" d="M86 1536h997v-262h-458l508 -715h-707v-297h680v-262h-963v827h467zM360 1995h240l227 -316h-192z" />
<glyph unicode="&#xe9;" horiz-adv-x="1245" d="M86 1536h997v-262h-458l508 -715h-707v-297h680v-262h-963v827h467zM457 1681l227 316h240l-275 -316h-192z" />
<glyph unicode="&#xea;" horiz-adv-x="1245" d="M86 1536h997v-262h-458l508 -715h-707v-297h680v-262h-963v827h467zM174 1679l426 316l432 -316h-266l-166 117l-166 -117h-260z" />
<glyph unicode="&#xeb;" horiz-adv-x="1245" d="M86 1536l524 -709h-467v-827h963v262h-680v297h707l-508 715h458v262h-997zM236 1847q0 70 47 120t120 50q70 0 120 -50t50 -120q0 -35 -13 -64.5t-36.5 -53t-54.5 -37t-66 -13.5q-74 0 -120.5 50.5t-46.5 117.5zM664 1847q0 70 50 120t120 50q33 0 63.5 -13t54 -36.5 t36.5 -54.5t13 -66t-13 -64.5t-36.5 -53t-54.5 -37t-63 -13.5q-35 0 -66 13.5t-54.5 37t-36.5 53t-13 64.5z" />
<glyph unicode="&#xf0;" horiz-adv-x="1267" d="M74 487q0 131 44 230.5t110.5 167t146.5 101.5t151 34q23 0 47.5 -4t47.5 -4l-95 137l-381 -234l-65 111l377 227l-99 158l226 133l100 -147l360 211l72 -113l-356 -213l313 -467q33 -51 52.5 -94t29.5 -81t14.5 -75t4.5 -78q0 -109 -45.5 -205t-120 -166.5t-174 -111.5 t-207.5 -41q-111 0 -211.5 41t-176 111.5t-120.5 167t-45 204.5zM358 487q0 -53 21.5 -100t57.5 -83t85.5 -57.5t104.5 -21.5q53 0 100 21.5t83 57.5t57.5 83t21.5 100q0 55 -21.5 104.5t-57.5 86.5t-83 58.5t-100 21.5q-55 0 -104.5 -21.5t-85.5 -58.5t-57.5 -86 t-21.5 -105z" />
<glyph unicode="&#xf1;" horiz-adv-x="1583" d="M143 -43l645 639l648 -645v1585h-279v-930l-1014 1000v-1649zM362 1870q47 41 108.5 65.5t131.5 24.5q39 0 74 -11.5t69.5 -23.5t73.5 -23.5t86 -11.5q43 0 81 18.5t75 45.5l113 -176q-53 -43 -108.5 -71t-125.5 -28q-39 0 -75 10.5t-70.5 21.5t-73.5 21.5t-84 10.5 q-47 0 -87 -12.5t-81 -44.5zM422 606v350l180 -178z" />
<glyph unicode="&#xf2;" horiz-adv-x="1830" d="M90 770q0 166 66.5 312.5t180.5 255t263 171t315 62.5q168 0 318.5 -62.5t264.5 -171t181.5 -255t67.5 -312.5q0 -174 -72.5 -319.5t-191.5 -257.5q-113 -102 -254.5 -165t-313.5 -63q-176 0 -326.5 63.5t-261 173t-174 256t-63.5 312.5zM377 770q0 -113 43 -212 t116.5 -173t171 -116t207.5 -42q80 0 153 20.5t132 53.5l-747 752q-37 -66 -56.5 -135.5t-19.5 -147.5zM469 1995h240l227 -316h-193zM637 1237l745 -754q39 66 59.5 138.5t20.5 148.5q0 111 -43 209t-117.5 172t-174 116t-212.5 42q-76 0 -144.5 -20.5t-133.5 -51.5z" />
<glyph unicode="&#xf3;" horiz-adv-x="1830" d="M90 770q0 166 66.5 312.5t180.5 255t263 171t315 62.5q168 0 318.5 -62.5t264.5 -171t181.5 -255t67.5 -312.5q0 -174 -72.5 -319.5t-191.5 -257.5q-113 -102 -254.5 -165t-313.5 -63q-176 0 -326.5 63.5t-261 173t-174 256t-63.5 312.5zM377 770q0 -113 43 -212 t116.5 -173t171 -116t207.5 -42q80 0 153 20.5t132 53.5l-747 752q-37 -66 -56.5 -135.5t-19.5 -147.5zM637 1237l745 -754q39 66 59.5 138.5t20.5 148.5q0 111 -43 209t-117.5 172t-174 116t-212.5 42q-76 0 -144.5 -20.5t-133.5 -51.5zM655 1681l228 316h239l-274 -316 h-193z" />
<glyph unicode="&#xf4;" horiz-adv-x="1830" d="M90 770q0 166 66.5 312.5t180.5 255t263 171t315 62.5q168 0 318.5 -62.5t264.5 -171t181.5 -255t67.5 -312.5q0 -174 -72.5 -319.5t-191.5 -257.5q-113 -102 -254.5 -165t-313.5 -63q-176 0 -326.5 63.5t-261 173t-174 256t-63.5 312.5zM377 770q0 -113 43 -212 t116.5 -173t171 -116t207.5 -42q80 0 153 20.5t132 53.5l-747 752q-37 -66 -56.5 -135.5t-19.5 -147.5zM461 1679l426 316l432 -316h-266l-166 117l-166 -117h-260zM637 1237l745 -754q39 66 59.5 138.5t20.5 148.5q0 111 -43 209t-117.5 172t-174 116t-212.5 42 q-76 0 -144.5 -20.5t-133.5 -51.5z" />
<glyph unicode="&#xf5;" horiz-adv-x="1830" d="M90 770q0 -166 63.5 -312.5t174 -256t261 -173t326.5 -63.5q172 0 313.5 62.5t254.5 165.5q119 113 191.5 258t72.5 319q0 166 -67.5 312.5t-181.5 255t-264.5 171t-318.5 62.5q-166 0 -315 -62.5t-263 -171t-180.5 -255t-66.5 -312.5zM377 770q0 78 19.5 147.5 t56.5 135.5l747 -752q-59 -33 -132 -53.5t-153 -20.5q-111 0 -208 42t-170.5 116t-116.5 173t-43 212zM479 1870q47 41 108.5 65.5t131.5 24.5q39 0 73.5 -11.5t69.5 -23.5t74 -23.5t86 -11.5q43 0 81 18.5t75 45.5l112 -176q-53 -43 -108 -71t-125 -28q-39 0 -75 10.5 t-70.5 21.5t-73.5 21.5t-84 10.5q-47 0 -87 -12.5t-81 -44.5zM637 1237q66 31 134.5 51.5t143.5 20.5q113 0 212.5 -42t174 -116t117.5 -172t43 -209q0 -76 -20.5 -148.5t-59.5 -138.5z" />
<glyph unicode="&#xf6;" horiz-adv-x="1830" d="M90 770q0 -166 63.5 -312.5t174 -256t261 -173t326.5 -63.5q172 0 313.5 62.5t254.5 165.5q119 113 191.5 258t72.5 319q0 166 -67.5 312.5t-181.5 255t-264.5 171t-318.5 62.5q-166 0 -315 -62.5t-263 -171t-180.5 -255t-66.5 -312.5zM377 770q0 78 19.5 147.5 t56.5 135.5l747 -752q-59 -33 -132 -53.5t-153 -20.5q-111 0 -208 42t-170.5 116t-116.5 173t-43 212zM528 1847q0 70 47.5 120t120.5 50q70 0 120 -50t50 -120q0 -35 -13 -64.5t-36.5 -53t-54.5 -37t-66 -13.5q-74 0 -121 50.5t-47 117.5zM637 1237q66 31 134.5 51.5 t143.5 20.5q113 0 212.5 -42t174 -116t117.5 -172t43 -209q0 -76 -20.5 -148.5t-59.5 -138.5zM956 1847q0 70 50.5 120t119.5 50q33 0 64 -13t54.5 -36.5t36.5 -54.5t13 -66t-13 -64.5t-36.5 -53t-54.5 -37t-64 -13.5q-35 0 -65.5 13.5t-54 37t-37 53t-13.5 64.5z" />
<glyph unicode="&#xf8;" horiz-adv-x="1830" d="M90 102l176 170q-84 102 -130 226.5t-46 269.5q0 166 66.5 311.5t180.5 255t262.5 173t313.5 63.5q139 0 263 -44t227 -120l207 207l176 -176l-205 -201q74 -102 119 -221t45 -248q0 -176 -73 -322.5t-193 -259.5q-111 -102 -252.5 -161.5t-313.5 -59.5q-129 0 -246.5 36 t-213.5 101l-187 -178zM375 768q0 -86 25.5 -159.5t66.5 -137.5l283 283l-297 290q-37 -63 -57.5 -131.5t-20.5 -144.5zM637 1229l289 -291l284 279q-63 41 -137 65.5t-160 24.5q-76 0 -144.5 -20.5t-131.5 -57.5zM651 301q57 -37 124.5 -53.5t137.5 -16.5q82 0 154 16.5 t129 53.5l-270 274zM1104 760l278 -275q35 57 55.5 130t20.5 153q0 72 -20.5 139.5t-55.5 130.5z" />
<glyph unicode="&#xf9;" d="M143 539v997h596v-254h-313v-743q0 -66 21.5 -122.5t62.5 -99.5t99.5 -67.5t129.5 -24.5q80 0 138.5 24.5t97.5 67.5t57.5 99.5t18.5 122.5v997h282v-997q0 -121 -44 -225.5t-123 -182.5t-188.5 -123t-238.5 -45q-133 0 -242.5 45t-188.5 123t-122 182.5t-43 225.5z M469 1995h240l227 -316h-193z" />
<glyph unicode="&#xfa;" d="M143 539v997h596v-254h-313v-743q0 -66 21.5 -122.5t62.5 -99.5t99.5 -67.5t129.5 -24.5q80 0 138.5 24.5t97.5 67.5t57.5 99.5t18.5 122.5v997h282v-997q0 -121 -44 -225.5t-123 -182.5t-188.5 -123t-238.5 -45q-133 0 -242.5 45t-188.5 123t-122 182.5t-43 225.5z M655 1681l228 316h239l-274 -316h-193z" />
<glyph unicode="&#xfb;" d="M143 539v997h596v-254h-313v-743q0 -66 21.5 -122.5t62.5 -99.5t99.5 -67.5t129.5 -24.5q80 0 138.5 24.5t97.5 67.5t57.5 99.5t18.5 122.5v997h282v-997q0 -121 -44 -225.5t-123 -182.5t-188.5 -123t-238.5 -45q-133 0 -242.5 45t-188.5 123t-122 182.5t-43 225.5z M313 1679l426 316l432 -316h-266l-166 117l-166 -117h-260z" />
<glyph unicode="&#xfc;" d="M143 539q0 -121 43 -225.5t122 -182.5t188.5 -123t242.5 -45q129 0 238.5 45t188.5 123t123 182.5t44 225.5v997h-282v-997q0 -66 -18.5 -122.5t-57.5 -99.5t-97.5 -67.5t-138.5 -24.5q-72 0 -130 24.5t-99 67.5t-62.5 99.5t-21.5 122.5v743h313v254h-596v-997zM356 1847 q0 70 47.5 120t120.5 50q70 0 120 -50t50 -120q0 -35 -13 -64.5t-36.5 -53t-54.5 -37t-66 -13.5q-74 0 -121 50.5t-47 117.5zM784 1847q0 70 50.5 120t119.5 50q33 0 64 -13t54.5 -36.5t36.5 -54.5t13 -66t-13 -64.5t-36.5 -53t-54.5 -37t-64 -13.5q-35 0 -65.5 13.5t-54 37 t-37 53t-13.5 64.5z" />
<glyph unicode="&#xfd;" horiz-adv-x="1249" d="M-43 1536h315l346 -635l338 635h324l-829 -1536h-310l330 621zM571 1681l228 316h239l-274 -316h-193z" />
<glyph unicode="&#xfe;" horiz-adv-x="1335" d="M143 0v1335l283 275v-551q57 96 150.5 149.5t216.5 53.5q100 0 189 -39t154.5 -106.5t104.5 -160t39 -200.5q0 -109 -39 -203t-104.5 -164t-154.5 -109.5t-189 -39.5q-123 0 -216.5 54t-150.5 152v-446h-283zM559 756q0 -49 17.5 -91t48 -74t71.5 -50.5t88 -18.5 q49 0 91.5 18.5t74 50.5t50 74t18.5 91q0 45 -18.5 86t-50 71.5t-73.5 49t-92 18.5q-47 0 -88 -18.5t-71.5 -49t-48 -71.5t-17.5 -86z" />
<glyph unicode="&#xff;" horiz-adv-x="1249" d="M-43 1536l514 -915l-330 -621h310l829 1536h-324l-338 -635l-346 635h-315zM244 1847q0 70 47 120t121 50q70 0 120 -50t50 -120q0 -35 -13.5 -64.5t-37 -53t-54.5 -37t-65 -13.5q-74 0 -121 50.5t-47 117.5zM672 1847q0 70 50 120t120 50q33 0 63.5 -13t54 -36.5 t37 -54.5t13.5 -66t-13.5 -64.5t-37 -53t-54.5 -37t-63 -13.5q-35 0 -66 13.5t-54.5 37t-36.5 53t-13 64.5z" />
<glyph unicode="&#x152;" horiz-adv-x="2504" d="M70 770q0 166 66.5 312.5t180 255t262 171t314.5 62.5t315.5 -62.5t263 -171t180 -255t66.5 -312.5t-63.5 -313.5t-175 -256t-262 -172t-324.5 -63.5q-176 0 -326.5 63.5t-261 172t-173 256t-62.5 313.5zM354 770q0 -115 42 -213t116 -172t172 -116t209 -42q113 0 212 42 t173 116t116 172t42 213q0 111 -42 209t-116 172t-173 116t-212 42q-111 0 -209 -42t-172 -116t-116 -172t-42 -209zM1439 0v1536h961v-262h-678v-537h643v-270h-643v-205h678v-262h-961z" />
<glyph unicode="&#x153;" horiz-adv-x="2543" d="M90 770q0 166 66.5 312.5t180.5 255t263 171t315 62.5q168 0 318.5 -62.5t264.5 -171t181.5 -255t67.5 -312.5q0 -174 -72.5 -319.5t-191.5 -257.5q-113 -102 -254.5 -165t-313.5 -63q-176 0 -326.5 63.5t-261 173t-174 256t-63.5 312.5zM377 770q0 -113 43 -212 t116.5 -173t171 -116t207.5 -42q80 0 153 20.5t132 53.5l-747 752q-37 -66 -56.5 -135.5t-19.5 -147.5zM637 1237l745 -754q39 66 59.5 138.5t20.5 148.5q0 111 -43 209t-117.5 172t-174 116t-212.5 42q-76 0 -144.5 -20.5t-133.5 -51.5zM1403 1536h997v-262h-458l508 -715 h-707v-297h680v-262h-963v827h467z" />
<glyph unicode="&#x178;" horiz-adv-x="1402" d="M27 1536l532 -940v-596h281v596l520 940h-316l-344 -631l-338 631h-335zM315 1847q0 70 47.5 120t120.5 50q70 0 120 -50t50 -120q0 -35 -13 -64.5t-36.5 -53t-54.5 -37t-66 -13.5q-74 0 -121 50.5t-47 117.5zM743 1847q0 70 50.5 120t119.5 50q33 0 64 -13t54.5 -36.5 t36.5 -54.5t13 -66t-13 -64.5t-36.5 -53t-54.5 -37t-64 -13.5q-35 0 -65.5 13.5t-54 37t-37 53t-13.5 64.5z" />
<glyph unicode="&#x2000;" horiz-adv-x="1076" />
<glyph unicode="&#x2001;" horiz-adv-x="2152" />
<glyph unicode="&#x2002;" horiz-adv-x="1076" />
<glyph unicode="&#x2003;" horiz-adv-x="2152" />
<glyph unicode="&#x2004;" horiz-adv-x="717" />
<glyph unicode="&#x2005;" horiz-adv-x="538" />
<glyph unicode="&#x2006;" horiz-adv-x="358" />
<glyph unicode="&#x2007;" horiz-adv-x="358" />
<glyph unicode="&#x2008;" horiz-adv-x="269" />
<glyph unicode="&#x2009;" horiz-adv-x="430" />
<glyph unicode="&#x200a;" horiz-adv-x="119" />
<glyph unicode="&#x2018;" horiz-adv-x="552" d="M143 977v559l273 -287v-272h-273z" />
<glyph unicode="&#x2019;" horiz-adv-x="563" d="M143 977v559h273v-272z" />
<glyph unicode="&#x201c;" horiz-adv-x="987" d="M143 977v559l273 -287v-272h-273zM567 977v559l273 -287v-272h-273z" />
<glyph unicode="&#x201d;" horiz-adv-x="991" d="M143 977v559h273v-272zM567 977v559h273v-272z" />
<glyph unicode="&#x202f;" horiz-adv-x="430" />
<glyph unicode="&#x205f;" horiz-adv-x="538" />
<glyph unicode="&#x20ac;" horiz-adv-x="1783" d="M-49 600v141h219v23q0 20 1 40.5t3 41.5h-223v141h252q39 127 116.5 233.5t183 184.5t232.5 122t264 44q166 0 315.5 -60.5t262.5 -167.5l-193 -192q-76 74 -174 115t-211 41q-84 0 -158.5 -23.5t-139 -65.5t-114.5 -101.5t-81 -129.5h717l-142 -141h-618q-6 -41 -6 -82 q0 -16 2 -23h520l-141 -141h-357q27 -82 77 -151.5t117.5 -119.5t149.5 -79t174 -29q113 0 211.5 44t173.5 114l201 -193q-113 -109 -262 -169t-324 -60q-154 0 -290 49t-242.5 135t-179 204t-101.5 255h-235z" />
<glyph unicode="&#x25fc;" horiz-adv-x="1536" d="M0 0v1536h1536v-1536h-1536z" />
</font>
</defs>
</svg>
